<svg width="62" height="82" viewBox="0 0 62 82" fill="none" xmlns="http://www.w3.org/2000/svg">
<path fill-rule="evenodd" clip-rule="evenodd" d="M61.3399 16.9276V70.0699C61.3399 72.2523 59.5717 74.0221 57.3876 74.0221H4.95224C2.7682 74.0221 1 72.2523 1 70.0699V4.95107C1 2.76868 2.7682 1.00049 4.95224 1.00049H45.9834" fill="white"/>
<path d="M61.3399 16.9276V70.0699C61.3399 72.2523 59.5717 74.0221 57.3876 74.0221H4.95224C2.7682 74.0221 1 72.2523 1 70.0699V4.95107C1 2.76868 2.7682 1.00049 4.95224 1.00049H45.9834" stroke="#2C415B"/>
<path fill-rule="evenodd" clip-rule="evenodd" d="M61.3397 16.6842H45.6538V1L61.3397 16.6842Z" fill="white"/>
<path fill-rule="evenodd" clip-rule="evenodd" d="M61.3397 16.6842H45.6538V1L61.3397 16.6842Z" stroke="#26508A" stroke-linecap="round" stroke-linejoin="round"/>
<path d="M10.8892 14.5718H33.741" stroke="#26508A" stroke-opacity="0.264578" stroke-linecap="round" stroke-linejoin="round"/>
<path d="M10.8892 21.2261H52.0384" stroke="#26508A" stroke-opacity="0.264578" stroke-linecap="round" stroke-linejoin="round"/>
<path d="M10.8892 27.8794H52.0384" stroke="#26508A" stroke-opacity="0.264578" stroke-linecap="round" stroke-linejoin="round"/>
<path d="M10.8892 34.5337H52.0384" stroke="#26508A" stroke-opacity="0.264578" stroke-linecap="round" stroke-linejoin="round"/>
<path d="M10.8892 61.34C10.8892 61.34 12.0901 59.9194 13.8833 60.6297C15.6781 61.34 13.529 63.1547 13.3077 62.7605C12.7621 61.7841 13.7402 59.3888 15.8611 59.3888C17.9836 59.3888 16.3867 62.2265 16.3867 62.2265C16.3867 62.2265 20.0745 55.2186 23.1285 57.0816" stroke="#FF5500"/>
<path fill-rule="evenodd" clip-rule="evenodd" d="M38.7264 62.582L33.3337 77.8238C33.2023 78.1964 33.5932 78.5374 33.9441 78.3577L37.3558 76.6161C37.5837 76.4997 37.8614 76.6045 37.9596 76.8407L39.5431 80.7281C39.7012 81.1156 40.2601 81.0807 40.3682 80.6765L44.8061 64.2238" fill="#FCE1D0"/>
<path d="M38.7264 62.582L33.3337 77.8238C33.2023 78.1964 33.5932 78.5374 33.9441 78.3577L37.3558 76.6161C37.5837 76.4997 37.8614 76.6045 37.9596 76.8407L39.5431 80.7281C39.7012 81.1156 40.2601 81.0807 40.3682 80.6765L44.8061 64.2238" stroke="#FF5500"/>
<path fill-rule="evenodd" clip-rule="evenodd" d="M47.008 62.582L52.4007 77.8238C52.5321 78.1964 52.1412 78.5374 51.7902 78.3577L48.3786 76.6161C48.1507 76.4997 47.8729 76.6045 47.7748 76.8407L46.1912 80.7281C46.0332 81.1156 45.4743 81.0807 45.3662 80.6765L40.9282 64.2238" fill="#FCE1D0"/>
<path d="M47.008 62.582L52.4007 77.8238C52.5321 78.1964 52.1412 78.5374 51.7902 78.3577L48.3786 76.6161C48.1507 76.4997 47.8729 76.6045 47.7748 76.8407L46.1912 80.7281C46.0332 81.1156 45.4743 81.0807 45.3662 80.6765L40.9282 64.2238" stroke="#FF5500"/>
<path fill-rule="evenodd" clip-rule="evenodd" d="M52.4147 54.9835C52.4147 60.2565 48.1398 64.5314 42.8668 64.5314C37.5938 64.5314 33.3188 60.2565 33.3188 54.9835C33.3188 49.7105 37.5938 45.4355 42.8668 45.4355C48.1398 45.4355 52.4147 49.7105 52.4147 54.9835Z" fill="#FCE1D0" stroke="#FF5500"/>
<path fill-rule="evenodd" clip-rule="evenodd" d="M46.2841 55.1341C46.2841 57.0221 44.7538 58.5524 42.8658 58.5524C40.9795 58.5524 39.4492 57.0221 39.4492 55.1341C39.4492 53.2461 40.9795 51.7158 42.8658 51.7158C44.7538 51.7158 46.2841 53.2461 46.2841 55.1341Z" stroke="#FF5500"/>
</svg>
