<svg width="102" height="81" viewBox="0 0 102 81" fill="none" xmlns="http://www.w3.org/2000/svg">
<path d="M1.60254 34.2169L7.7462 23.2732C7.98137 22.8392 8.42486 22.5703 8.90602 22.5703C11.294 22.5703 25.3797 22.5703 28.209 22.5703C30.6356 22.5703 45.0989 22.5703 47.5165 22.5703C47.9949 22.5703 48.4358 22.8376 48.6695 23.269L54.8154 34.2169" stroke="#2C415B"/>
<path d="M90.0563 77.3967H68.0684" stroke="#2C415B"/>
<path d="M83.7577 46.0066H68.3095C64.2637 46.0066 60.9722 49.2982 60.9722 53.3439C60.9722 57.3897 64.2637 60.6813 68.3095 60.6813H92.6029C97.0975 60.6813 100.754 64.3377 100.754 68.8389C100.754 72.4688 98.9802 75.5413 95.5784 76.8032" stroke="#2C415B"/>
<path d="M55.4177 35.8866C55.4177 34.4099 54.2235 33.2128 52.7504 33.2128C50.728 33.2128 5.8166 33.2128 3.66743 33.2128C2.19416 33.2126 1 34.4097 1 35.8866C1 37.7635 1 75.2646 1 77.3262C1 78.8029 2.19416 80 3.66723 80H52.7502C54.2233 80 55.4175 78.8029 55.4175 77.3262C55.4177 75.2939 55.4177 37.7459 55.4177 35.8866Z" stroke="#2C415B"/>
<path d="M21.8833 22.5703V33.2129H34.3331V22.5703C32.8267 22.5703 23.3994 22.5703 21.8833 22.5703Z" fill="#FCE1D0" stroke="#FF5500"/>
<path d="M24.0378 46.4247C26.0455 46.4247 26.0455 47.8715 28.0532 47.8715C30.0611 47.8715 30.0611 46.4247 32.0692 46.4247C32.9462 46.4247 33.4404 46.7006 33.886 47.0115C34.0735 47.1423 34.3331 47.0065 34.3331 46.7803V33.2128H21.8833V46.7121C21.8833 46.9334 22.135 47.0681 22.3208 46.9435C22.7417 46.6615 23.2254 46.4247 24.0378 46.4247Z" fill="#FCE1D0" stroke="#FF5500"/>
<path d="M86.3918 1C83.2653 1.00341 80.2822 1.99839 77.7894 3.83273C71.3107 8.6006 69.9237 17.7179 74.6918 24.1966L84.788 37.9153C85.5838 38.9966 87.1996 38.9966 87.9954 37.9153L98.0916 24.1966C105.189 14.5532 98.1769 1.01305 86.3918 1ZM86.2964 22.9006C82.1878 22.9006 78.8573 19.5699 78.8573 15.4614C78.8573 11.3528 82.188 8.02229 86.2964 8.02229C90.4051 8.02229 93.7356 11.353 93.7356 15.4614C93.7356 19.5699 90.4049 22.9006 86.2964 22.9006Z" fill="#FCE1D0" stroke="#FF5500"/>
<path d="M86.3004 48.5574C84.7166 48.4458 83.5992 47.0896 83.7002 45.5944C83.7765 44.1309 85.0785 42.8884 86.6614 42.9952C88.1544 43.0731 89.3656 44.4082 89.2606 45.9564C89.1855 47.4165 87.8948 48.6502 86.3004 48.5574Z" stroke="#2C415B"/>
<path d="M92.7008 80.0876C91.1136 79.9756 89.9998 78.6169 90.1006 77.1246C90.1765 75.6695 91.4706 74.4179 93.0618 74.5254C94.317 74.5908 95.4534 75.5545 95.6439 76.9408C95.8755 78.7025 94.4399 80.1888 92.7008 80.0876Z" stroke="#2C415B"/>
<path d="M65.1225 80.0875C63.7663 79.9918 62.7193 78.9793 62.5393 77.6703C62.3114 75.9329 63.7237 74.4066 65.4835 74.5253C66.9789 74.6034 68.1875 75.9411 68.0827 77.4865C68.0078 78.9442 66.7189 80.1803 65.1225 80.0875Z" stroke="#2C415B"/>
<path opacity="0.1" d="M86.3004 48.5574C84.7166 48.4458 83.5992 47.0896 83.7002 45.5944C83.7765 44.1309 85.0785 42.8884 86.6614 42.9952C88.1544 43.0731 89.3656 44.4082 89.2606 45.9564C89.1855 47.4165 87.8948 48.6502 86.3004 48.5574Z" fill="#2C415B"/>
<path opacity="0.1" d="M92.7008 80.0876C91.1136 79.9756 89.9998 78.6169 90.1006 77.1246C90.1765 75.6695 91.4706 74.4179 93.0618 74.5254C94.317 74.5908 95.4534 75.5545 95.6439 76.9408C95.8755 78.7025 94.4399 80.1888 92.7008 80.0876Z" fill="#2C415B"/>
<path opacity="0.1" d="M65.1225 80.0875C63.7663 79.9918 62.7193 78.9793 62.5393 77.6703C62.3114 75.9329 63.7237 74.4066 65.4835 74.5253C66.9789 74.6034 68.1875 75.9411 68.0827 77.4865C68.0078 78.9442 66.7189 80.1803 65.1225 80.0875Z" fill="#2C415B"/>
</svg>
