<svg width="97" height="72" viewBox="0 0 97 72" fill="none" xmlns="http://www.w3.org/2000/svg">
<path d="M1 34.3333H86.8333C88.8277 34.3333 90.4444 35.95 90.4444 37.9444V37.9444C90.4444 39.9387 88.8277 41.5555 86.8333 41.5555H1V34.3333Z" stroke="#2C415B"/>
<mask id="mask0" mask-type="alpha" maskUnits="userSpaceOnUse" x="0" y="15" width="97" height="57">
<rect x="1" y="16.4112" width="95.0663" height="54.5888" fill="#C4C4C4" stroke="#2C415B"/>
</mask>
<g mask="url(#mask0)">
<rect x="1" y="16.4112" width="95.0663" height="54.5888" fill="#FCE1D0" stroke="#FF5500"/>
<path d="M108.692 48.3291C91.3291 45.4805 76.1361 58.5796 58.7451 54.3636" stroke="#FF5500"/>
<path d="M74.8991 48.1999C57.5361 45.3513 42.3431 58.4504 24.9521 54.2344" stroke="#FF5500"/>
<path d="M40.9206 48.1999C23.5576 45.3513 8.36463 58.4504 -9.02637 54.2344" stroke="#FF5500"/>
</g>
<path d="M1 34.3333H86.8333C88.8277 34.3333 90.4444 35.95 90.4444 37.9444C90.4444 39.9387 88.8277 41.5555 86.8333 41.5555H1V34.3333Z" fill="#2C415B"/>
<rect x="1" y="61.5555" width="95" height="9.44444" stroke="#FF5500"/>
<mask id="mask1" mask-type="alpha" maskUnits="userSpaceOnUse" x="8" y="0" width="79" height="42">
<path d="M47.1397 1L51.2126 6.98828L56.6473 2.20057L59.1024 9.01316L65.5576 5.72685L66.2405 12.9357L73.3105 11.3573L72.1785 18.5094L79.4191 18.7381L76.5432 25.3841L83.4994 27.4054L79.0603 33.1278L85.2951 36.8148L79.5718 41.2539H14.7077L8.98438 36.8148L15.2192 33.1278L10.7801 27.4054L17.7363 25.3841L14.8604 18.7381L22.101 18.5094L20.969 11.3573L28.039 12.9357L28.7219 5.72685L35.1771 9.01316L37.6321 2.20057L43.0669 6.98828L47.1397 1Z" fill="white" stroke="black"/>
</mask>
<g mask="url(#mask1)">
<path d="M47.1397 1L51.2126 6.98828L56.6473 2.20057L59.1024 9.01316L65.5576 5.72685L66.2405 12.9357L73.3105 11.3573L72.1785 18.5094L79.4191 18.7381L76.5432 25.3841L83.4994 27.4054L79.0603 33.1278L85.2951 36.8148L79.5718 41.2539H14.7077L8.98438 36.8148L15.2192 33.1278L10.7801 27.4054L17.7363 25.3841L14.8604 18.7381L22.101 18.5094L20.969 11.3573L28.039 12.9357L28.7219 5.72685L35.1771 9.01316L37.6321 2.20057L43.0669 6.98828L47.1397 1Z" fill="white" stroke="#2C415B"/>
<circle cx="47.0477" cy="38.878" r="11.6976" stroke="#2C415B"/>
<circle opacity="0.1" cx="47.0477" cy="38.878" r="11.6976" fill="#2C415B"/>
</g>
</svg>
