<svg width="84" height="84" viewBox="0 0 84 84" fill="none" xmlns="http://www.w3.org/2000/svg">
<path d="M9.29116 62.6656L0.707107 54.0815L53.8285 0.960138L62.4125 9.54418C59.4893 12.8331 59.6037 17.8723 62.7557 21.0243C65.9077 24.1763 70.9469 24.2907 74.2358 21.3675L82.8199 29.9515L29.6985 83.0729L21.1144 74.4889C24.0376 71.1999 23.9232 66.1607 20.7713 63.0088C17.6193 59.8568 12.5801 59.7424 9.29116 62.6656Z" stroke="#2C415B"/>
<path d="M9.29116 62.6656L0.707107 54.0815L16.7054 38.0832L45.6968 67.0746L29.6985 83.0729L21.1144 74.4889C24.0376 71.1999 23.9232 66.1607 20.7713 63.0088C17.6193 59.8568 12.5801 59.7424 9.29116 62.6656Z" fill="#FCE1D0" stroke="#FF5500"/>
<circle cx="9.28096" cy="54.0815" r="0.8125" transform="rotate(-45 9.28096 54.0815)" stroke="#FF5500"/>
<circle cx="36.7525" cy="35.1487" r="5.275" transform="rotate(-45 36.7525 35.1487)" stroke="#FF5500"/>
<circle cx="57.5406" cy="35.8912" r="5.275" transform="rotate(-45 57.5406 35.8912)" stroke="#FF5500"/>
<circle cx="53.8293" cy="9.53381" r="0.8125" transform="rotate(-45 53.8293 9.53381)" stroke="#2C415B"/>
<circle cx="29.6989" cy="74.4993" r="0.8125" transform="rotate(-45 29.6989 74.4993)" stroke="#FF5500"/>
<circle cx="74.2468" cy="29.9515" r="0.8125" transform="rotate(-45 74.2468 29.9515)" stroke="#2C415B"/>
<path d="M47.5175 17.7009L47.5175 54.0816" stroke="#FF5500"/>
</svg>
