<svg width="101" height="72" viewBox="0 0 101 72" fill="none" xmlns="http://www.w3.org/2000/svg">
<g opacity="0.96207">
<path d="M40.52 49.4421H21.7172" stroke="#22243D" stroke-linecap="round"/>
<path fill-rule="evenodd" clip-rule="evenodd" d="M58.272 48.123C58.272 40.9054 53.2353 20.9626 50.3934 12.8417C46.0645 0.479969 38.0813 1.00319 38.0813 1.00319H7.59148L8.2221 8.06111H35.1237C35.1237 8.06111 41.7383 7.84632 43.9771 16.6859C45.7919 23.854 51.1645 42.23 51.1645 48.4315" fill="white"/>
<path d="M58.272 48.123C58.272 40.9054 53.2353 20.9626 50.3934 12.8417C46.0645 0.479969 38.0813 1.00319 38.0813 1.00319H7.59148L8.2221 8.06111H35.1237C35.1237 8.06111 41.7383 7.84632 43.9771 16.6859C45.7919 23.854 51.1645 42.23 51.1645 48.4315" stroke="#22243D" stroke-linecap="round" stroke-linejoin="round"/>
<path fill-rule="evenodd" clip-rule="evenodd" d="M53.4153 65.6852H5.85483C3.17541 65.6852 0.99992 63.5097 0.99992 60.8276V34.4822C0.99992 32.6592 2.47595 31.1804 4.29895 31.1804H10.4481L13.4773 48.4604H58.2729V60.8276C58.2729 63.5097 56.0975 65.6852 53.4153 65.6852Z" fill="white"/>
<path fill-rule="evenodd" clip-rule="evenodd" d="M53.4153 65.6852H5.85483C3.17541 65.6852 0.999921 63.5097 0.999921 60.8276V34.4822C0.999921 32.6592 2.47595 31.1804 4.29895 31.1804H10.4481L13.4773 48.4604H58.2729V60.8276C58.2729 63.5097 56.0975 65.6852 53.4153 65.6852Z" stroke="#22243D" stroke-linecap="round" stroke-linejoin="round"/>
<path fill-rule="evenodd" clip-rule="evenodd" d="M8.4165 31.181H4.70717L9.23988 8.0603H12.9492L8.4165 31.181Z" fill="white"/>
<path fill-rule="evenodd" clip-rule="evenodd" d="M8.4165 31.181H4.70717L9.23988 8.0603H12.9492L8.4165 31.181Z" stroke="#22243D" stroke-linecap="round" stroke-linejoin="round"/>
<path fill-rule="evenodd" clip-rule="evenodd" d="M33.7385 40.4587L33.4576 40.2357C32.7747 39.6987 32.659 38.7101 33.1988 38.0299L38.6017 31.1785C39.1387 30.4956 40.1245 30.3799 40.8074 30.9169L41.0883 31.14C41.7713 31.677 41.8869 32.6628 41.3499 33.3457L35.947 40.1971C35.41 40.8801 34.4214 40.9957 33.7385 40.4587Z" fill="white"/>
<path fill-rule="evenodd" clip-rule="evenodd" d="M33.7385 40.4587L33.4576 40.2357C32.7747 39.6987 32.659 38.7101 33.1988 38.0299L38.6017 31.1785C39.1387 30.4956 40.1245 30.3799 40.8074 30.9169L41.0883 31.14C41.7713 31.677 41.8869 32.6628 41.3499 33.3457L35.947 40.1971C35.41 40.8801 34.4214 40.9957 33.7385 40.4587Z" stroke="#22243D" stroke-linecap="round" stroke-linejoin="round"/>
<path fill-rule="evenodd" clip-rule="evenodd" d="M50.1855 48.2091L39.1126 36.1724L50.1855 48.2091Z" fill="white"/>
<path d="M50.1855 48.2091L39.1126 36.1724" stroke="#22243D" stroke-linecap="round" stroke-linejoin="round"/>
<path fill-rule="evenodd" clip-rule="evenodd" d="M22.2798 63.9222C22.2798 67.7087 19.2093 70.7819 15.4201 70.7819C11.6309 70.7819 8.56047 67.7087 8.56047 63.9222C8.56047 60.133 11.6309 57.0598 15.4201 57.0598C19.2093 57.0598 22.2798 60.133 22.2798 63.9222Z" fill="white"/>
<path fill-rule="evenodd" clip-rule="evenodd" d="M22.2798 63.9222C22.2798 67.7087 19.2093 70.7819 15.4201 70.7819C11.6309 70.7819 8.56047 67.7087 8.56047 63.9222C8.56047 60.133 11.6309 57.0598 15.4201 57.0598C19.2093 57.0598 22.2798 60.133 22.2798 63.9222Z" stroke="#22243D" stroke-linecap="round" stroke-linejoin="round"/>
<path fill-rule="evenodd" clip-rule="evenodd" d="M52.1108 65.6851C52.1108 68.6207 49.7316 70.9999 46.7933 70.9999C43.8605 70.9999 41.4813 68.6207 41.4813 65.6851C41.4813 62.7496 43.8605 60.3704 46.7933 60.3704C49.7316 60.3704 52.1108 62.7496 52.1108 65.6851Z" fill="white"/>
<path fill-rule="evenodd" clip-rule="evenodd" d="M52.1108 65.6851C52.1108 68.6207 49.7316 70.9999 46.7933 70.9999C43.8605 70.9999 41.4813 68.6207 41.4813 65.6851C41.4813 62.7496 43.8605 60.3704 46.7933 60.3704C49.7316 60.3704 52.1108 62.7496 52.1108 65.6851Z" stroke="#22243D" stroke-linecap="round" stroke-linejoin="round"/>
<path d="M63.2176 23.5261V64.9291H83.7305" stroke="#22243D" stroke-linecap="round" stroke-linejoin="round"/>
<path fill-rule="evenodd" clip-rule="evenodd" d="M86.8516 52.2415L85.706 51.0959L84.5604 52.2415" fill="#FCC0A2"/>
<path fill-rule="evenodd" clip-rule="evenodd" d="M81.3511 52.2415L80.2055 51.0959L79.0599 52.2415" fill="#FCC0A2"/>
<path fill-rule="evenodd" clip-rule="evenodd" d="M95.099 60.4111C97.5427 60.4111 99.5254 58.4285 99.5254 55.9847V33.0581C99.5254 30.6108 97.5427 28.6282 95.099 28.6282H72.1688C69.7251 28.6282 67.7424 30.6108 67.7424 33.0581V55.9847C67.7424 58.4285 69.7251 60.4111 72.1688 60.4111H95.099Z" fill="#FCE1D0"/>
<path fill-rule="evenodd" clip-rule="evenodd" d="M72.1688 60.4111H95.099C97.5427 60.4111 99.5254 58.4285 99.5254 55.9847V33.0581C99.5254 30.6108 97.5427 28.6282 95.099 28.6282H72.1688C69.7251 28.6282 67.7424 30.6108 67.7424 33.0581V55.9847C67.7424 58.4285 69.7251 60.4111 72.1688 60.4111Z" stroke="#FF5500"/>
<path d="M91.3062 48.321V53.2618" stroke="#FF5500" stroke-linecap="round"/>
<path d="M92.7793 49.4259L91.3038 47.9504L89.8284 49.4259" stroke="#FF5500" stroke-linecap="round" stroke-linejoin="round"/>
<path d="M84.2188 48.321V53.2618" stroke="#FF5500" stroke-linecap="round"/>
<path d="M85.6943 49.4259L84.2189 47.9504L82.7434 49.4259" stroke="#FF5500" stroke-linecap="round" stroke-linejoin="round"/>
<path fill-rule="evenodd" clip-rule="evenodd" d="M86.7578 28.6284V40.4677H80.7176V28.6284" fill="white"/>
<path d="M86.7578 28.6284V40.4677H80.7176V28.6284" stroke="#FF5500"/>
</g>
</svg>
