<svg width="70" height="80" viewBox="0 0 70 80" fill="none" xmlns="http://www.w3.org/2000/svg">
<path d="M19.4102 21.3548L16.5987 17.2495C16.3643 16.9131 16.0062 16.6835 15.6028 16.6109C15.1994 16.5383 14.7837 16.6287 14.4468 16.8622L11.3872 18.9804C11.2198 19.0964 11.0769 19.2442 10.9667 19.4155C10.8566 19.5868 10.7813 19.7782 10.7452 19.9786C10.7091 20.179 10.7129 20.3846 10.7565 20.5836C10.8 20.7825 10.8824 20.971 10.9988 21.138L13.8057 25.2364" fill="white"/>
<path d="M13.8061 25.8162C13.7118 25.8164 13.6189 25.7935 13.5355 25.7497C13.4521 25.7059 13.3806 25.6423 13.3272 25.5646L10.5204 21.4662C10.3611 21.2365 10.2486 20.9776 10.1894 20.7044C10.1302 20.4312 10.1254 20.149 10.1752 19.8739C10.2251 19.5989 10.3286 19.3363 10.4799 19.1012C10.6313 18.8662 10.8274 18.6632 11.0572 18.504L14.1168 16.3846C14.5802 16.0647 15.1514 15.9412 15.7056 16.0412C16.2598 16.1411 16.7519 16.4563 17.0744 16.918L19.8882 21.0257C19.9728 21.1525 20.004 21.3077 19.9751 21.4574C19.9461 21.6071 19.8593 21.7394 19.7335 21.8256C19.6076 21.9118 19.4529 21.9449 19.3028 21.9178C19.1528 21.8906 19.0194 21.8055 18.9317 21.6807L16.1202 17.5753C15.9732 17.3661 15.7493 17.2236 15.4976 17.1789C15.2458 17.1341 14.9866 17.1908 14.7765 17.3365L11.718 19.457C11.6132 19.5295 11.5238 19.6219 11.4549 19.7291C11.3859 19.8362 11.3388 19.9559 11.3161 20.0812C11.2935 20.2066 11.2959 20.3352 11.323 20.4597C11.3502 20.5841 11.4017 20.702 11.4745 20.8065L14.2837 24.9084C14.3435 24.9955 14.3783 25.0972 14.3845 25.2026C14.3907 25.308 14.368 25.413 14.3188 25.5065C14.2697 25.5999 14.1959 25.6781 14.1056 25.7327C14.0152 25.7873 13.9116 25.8162 13.8061 25.8162Z" fill="#323C6B"/>
<path d="M55.437 25.2364L58.2438 21.138C58.3603 20.971 58.4427 20.7825 58.4862 20.5836C58.5297 20.3846 58.5336 20.179 58.4975 19.9786C58.4614 19.7782 58.3861 19.5868 58.2759 19.4155C58.1658 19.2442 58.0229 19.0964 57.8554 18.9804L54.7947 16.8622C54.4578 16.6287 54.0421 16.5383 53.6387 16.6109C53.2353 16.6835 52.8772 16.9131 52.6429 17.2495L49.8325 21.3548" fill="white"/>
<path d="M55.4371 25.8161C55.3315 25.816 55.228 25.7872 55.1376 25.7326C55.0472 25.678 54.9735 25.5998 54.9243 25.5063C54.8752 25.4129 54.8524 25.3078 54.8586 25.2024C54.8648 25.097 54.8997 24.9953 54.9594 24.9083L57.7663 20.8099C57.8398 20.7054 57.8919 20.5873 57.9195 20.4626C57.9472 20.3379 57.9499 20.2089 57.9275 20.0831C57.905 19.9574 57.858 19.8373 57.7889 19.7298C57.7199 19.6223 57.6302 19.5295 57.5251 19.4569L54.4655 17.3375C54.2546 17.192 53.9947 17.1358 53.7426 17.1812C53.4904 17.2266 53.2664 17.3699 53.1195 17.5798L50.3115 21.6829C50.2689 21.7467 50.2141 21.8014 50.1502 21.8439C50.0863 21.8864 50.0146 21.9158 49.9393 21.9304C49.8639 21.9449 49.7865 21.9444 49.7114 21.9288C49.6362 21.9132 49.565 21.8828 49.5017 21.8395C49.4384 21.7961 49.3843 21.7406 49.3426 21.6762C49.3009 21.6118 49.2724 21.5398 49.2588 21.4643C49.2451 21.3888 49.2466 21.3113 49.2631 21.2364C49.2796 21.1615 49.3108 21.0906 49.355 21.0278L52.1665 16.9224C52.4888 16.4601 52.9811 16.1441 53.5357 16.0435C54.0903 15.9429 54.6622 16.0659 55.1264 16.3856L58.186 18.505C58.4161 18.6644 58.6124 18.8677 58.7638 19.1031C58.9152 19.3385 59.0187 19.6015 59.0684 19.877C59.118 20.1525 59.1128 20.435 59.0531 20.7085C58.9934 20.982 58.8804 21.241 58.7205 21.4707L55.9171 25.5645C55.8636 25.6424 55.792 25.706 55.7083 25.7498C55.6246 25.7937 55.5315 25.8164 55.4371 25.8161Z" fill="#323C6B"/>
<path d="M38.7948 17.879V10.7847C38.7948 10.409 38.6456 10.0486 38.3799 9.7829C38.1142 9.5172 37.7538 9.36794 37.3781 9.36794H31.871C31.6843 9.36702 31.4994 9.40299 31.3267 9.47378C31.154 9.54457 30.997 9.64878 30.8647 9.78043C30.7324 9.91208 30.6274 10.0686 30.5558 10.2409C30.4841 10.4133 30.4473 10.5981 30.4473 10.7847V17.8767" fill="white"/>
<path d="M38.7948 18.4587C38.641 18.4587 38.4936 18.3977 38.3849 18.289C38.2762 18.1802 38.2151 18.0328 38.2151 17.8791V10.7848C38.2148 10.5629 38.1265 10.3501 37.9696 10.1932C37.8127 10.0363 37.5999 9.94802 37.378 9.94771H31.871C31.6491 9.94802 31.4363 10.0363 31.2794 10.1932C31.1225 10.3501 31.0342 10.5629 31.0339 10.7848V17.8767C31.0339 18.0305 30.9728 18.1779 30.8641 18.2866C30.7554 18.3954 30.6079 18.4564 30.4542 18.4564C30.3005 18.4564 30.153 18.3954 30.0443 18.2866C29.9356 18.1779 29.8745 18.0305 29.8745 17.8767V10.7848C29.8751 10.2555 30.0857 9.74803 30.4599 9.37376C30.8342 8.99948 31.3417 8.78894 31.871 8.78833H37.378C37.9073 8.78894 38.4148 8.99948 38.7891 9.37376C39.1633 9.74803 39.3739 10.2555 39.3745 10.7848V17.8767C39.3748 17.9531 39.36 18.0287 39.331 18.0993C39.302 18.1699 39.2594 18.2341 39.2055 18.2881C39.1517 18.3422 39.0877 18.3851 39.0172 18.4144C38.9467 18.4437 38.8711 18.4587 38.7948 18.4587Z" fill="#323C6B"/>
<path d="M34.6215 79.4202C51.6473 79.4202 65.4495 65.618 65.4495 48.5922C65.4495 31.5663 51.6473 17.7642 34.6215 17.7642C17.5956 17.7642 3.79346 31.5663 3.79346 48.5922C3.79346 65.618 17.5956 79.4202 34.6215 79.4202Z" fill="#FCE1D0"/>
<path d="M34.6212 72.4734C47.8103 72.4734 58.5022 61.7815 58.5022 48.5924C58.5022 35.4033 47.8103 24.7114 34.6212 24.7114C21.4321 24.7114 10.7402 35.4033 10.7402 48.5924C10.7402 61.7815 21.4321 72.4734 34.6212 72.4734Z" fill="white"/>
<path d="M34.6217 73.053C29.7834 73.053 25.0537 71.6182 21.0308 68.9302C17.0079 66.2422 13.8724 62.4216 12.0208 57.9515C10.1693 53.4815 9.68484 48.5628 10.6288 43.8175C11.5727 39.0721 13.9025 34.7132 17.3237 31.292C20.745 27.8708 25.1038 25.5409 29.8492 24.597C34.5946 23.6531 39.5133 24.1376 43.9833 25.9891C48.4533 27.8406 52.2739 30.9761 54.9619 34.999C57.65 39.022 59.0847 43.7516 59.0847 48.59C59.0779 55.0759 56.4984 61.2942 51.9122 65.8804C47.326 70.4667 41.1076 73.0462 34.6217 73.053ZM34.6217 25.2863C30.0127 25.2863 25.5072 26.6531 21.6749 29.2137C17.8426 31.7743 14.8558 35.4139 13.092 39.6721C11.3282 43.9302 10.8667 48.6158 11.7659 53.1363C12.665 57.6567 14.8845 61.809 18.1436 65.0681C21.4026 68.3272 25.5549 70.5466 30.0754 71.4458C34.5958 72.345 39.2814 71.8835 43.5396 70.1197C47.7978 68.3559 51.4373 65.369 53.9979 61.5367C56.5586 57.7045 57.9253 53.199 57.9253 48.59C57.9176 42.4123 55.4598 36.49 51.091 32.1223C46.7222 27.7546 40.7993 25.2983 34.6217 25.2921V25.2863Z" fill="#FF5500"/>
<path d="M33.101 46.0578C32.9922 46.0579 32.8856 46.0275 32.7934 45.9698C32.7011 45.9122 32.6269 45.8298 32.5793 45.732L25.4804 31.1632C25.447 31.0947 25.4275 31.0203 25.4229 30.9443C25.4183 30.8682 25.4288 30.792 25.4536 30.72C25.5039 30.5745 25.6098 30.4549 25.7482 30.3876C25.8866 30.3203 26.046 30.3107 26.1915 30.3609C26.3369 30.4111 26.4565 30.5171 26.5238 30.6554L33.6216 45.2184C33.6646 45.3068 33.6845 45.4046 33.6793 45.5027C33.6742 45.6008 33.6442 45.6961 33.5921 45.7794C33.5401 45.8627 33.4677 45.9315 33.3818 45.9792C33.2959 46.0269 33.1993 46.0519 33.101 46.052V46.0578Z" fill="#FF5500"/>
<path d="M34.6967 45.1257H34.5448C32.6726 45.1257 31.1548 46.6435 31.1548 48.5158V48.6676C31.1548 50.5399 32.6726 52.0577 34.5448 52.0577H34.6967C36.569 52.0577 38.0867 50.5399 38.0867 48.6676V48.5158C38.0867 46.6435 36.569 45.1257 34.6967 45.1257Z" fill="#FCE1D0"/>
<path d="M34.6968 52.6385H34.5449C33.4925 52.6372 32.4835 52.2186 31.7393 51.4744C30.9951 50.7302 30.5764 49.7212 30.5752 48.6687V48.5168C30.5764 47.4644 30.9951 46.4554 31.7393 45.7112C32.4835 44.967 33.4925 44.5483 34.5449 44.5471H34.6968C35.7493 44.5483 36.7583 44.967 37.5025 45.7112C38.2467 46.4554 38.6653 47.4644 38.6665 48.5168V48.6687C38.6653 49.7212 38.2467 50.7302 37.5025 51.4744C36.7583 52.2186 35.7493 52.6372 34.6968 52.6385ZM34.5449 45.7065C33.7999 45.7074 33.0856 46.0038 32.5587 46.5306C32.0319 47.0575 31.7355 47.7718 31.7346 48.5168V48.6687C31.7355 49.414 32.032 50.1285 32.5591 50.6553C33.0862 51.1822 33.8008 51.4785 34.5461 51.4791H34.698C35.443 51.4781 36.1573 51.1818 36.6842 50.6549C37.211 50.1281 37.5074 49.4138 37.5083 48.6687V48.5168C37.5074 47.7718 37.211 47.0575 36.6842 46.5306C36.1573 46.0038 35.443 45.7074 34.698 45.7065H34.5449Z" fill="#FF5500"/>
<path d="M40.6166 18.7381C40.4944 18.7396 40.3748 18.7024 40.2749 18.6318C40.1751 18.5612 40.1002 18.4609 40.0608 18.3451C40.0214 18.2293 40.0197 18.1041 40.0558 17.9873C40.0919 17.8705 40.164 17.768 40.2619 17.6947C41.7867 16.5177 42.905 14.8931 43.4602 13.0486C44.0154 11.2041 43.9796 9.23208 43.3578 7.40895C42.736 5.58582 41.5594 4.00291 39.9928 2.88204C38.4263 1.76117 36.5483 1.15851 34.6221 1.15851C32.6958 1.15851 30.8178 1.76117 29.2513 2.88204C27.6847 4.00291 26.5081 5.58582 25.8863 7.40895C25.2645 9.23208 25.2287 11.2041 25.7839 13.0486C26.3391 14.8931 27.4574 16.5177 28.9822 17.6947C29.104 17.7886 29.1835 17.9271 29.2031 18.0796C29.2228 18.2321 29.1811 18.3862 29.0872 18.508C28.9932 18.6298 28.8548 18.7092 28.7022 18.7289C28.5497 18.7486 28.3956 18.7069 28.2738 18.6129C26.5576 17.288 25.2989 15.4593 24.6741 13.3831C24.0493 11.3069 24.0897 9.08732 24.7897 7.03526C25.4896 4.98319 26.814 3.20154 28.5773 1.93993C30.3407 0.678327 32.4545 0 34.6226 0C36.7908 0 38.9046 0.678327 40.6679 1.93993C42.4312 3.20154 43.7556 4.98319 44.4556 7.03526C45.1555 9.08732 45.1959 11.3069 44.5711 13.3831C43.9463 15.4593 42.6876 17.288 40.9714 18.6129C40.8704 18.6929 40.7455 18.737 40.6166 18.7381Z" fill="#323C6B"/>
<path opacity="0.5" d="M68.5713 53.58H68.5226C68.4467 53.5737 68.3727 53.5525 68.305 53.5176C68.2373 53.4828 68.1771 53.4349 68.1279 53.3767C68.0787 53.3186 68.0414 53.2513 68.0183 53.1788C67.9951 53.1062 67.9864 53.0298 67.9927 52.9539L68.0183 52.5783C68.0315 52.4264 68.1025 52.2853 68.2166 52.1842C68.3307 52.083 68.4792 52.0295 68.6316 52.0345C68.785 52.0438 68.9285 52.1136 69.0304 52.2286C69.1324 52.3436 69.1845 52.4944 69.1753 52.6478L69.1475 53.049C69.1353 53.1935 69.0694 53.3283 68.9627 53.4266C68.856 53.5249 68.7163 53.5796 68.5713 53.58Z" fill="#323C6B"/>
<path opacity="0.5" d="M63.9458 66.9569C63.8429 66.9569 63.7419 66.9295 63.6531 66.8775C63.5643 66.8255 63.4909 66.7509 63.4405 66.6612C63.3901 66.5715 63.3645 66.47 63.3663 66.3671C63.3681 66.2642 63.3972 66.1637 63.4508 66.0758C65.4659 62.7692 66.8915 59.1378 67.6639 55.3434C67.6765 55.2663 67.7046 55.1926 67.7463 55.1267C67.7881 55.0607 67.8427 55.0039 67.907 54.9596C67.9713 54.9153 68.0438 54.8844 68.1203 54.8689C68.1968 54.8533 68.2756 54.8533 68.3521 54.8689C68.4285 54.8845 68.5011 54.9154 68.5653 54.9598C68.6296 55.0041 68.6842 55.061 68.7259 55.1269C68.7676 55.1929 68.7956 55.2666 68.8082 55.3436C68.8207 55.4207 68.8176 55.4994 68.799 55.5752C67.9987 59.5011 66.5225 63.2581 64.4362 66.6787C64.3849 66.7629 64.3129 66.8327 64.2271 66.8814C64.1413 66.9301 64.0445 66.9561 63.9458 66.9569Z" fill="#323C6B"/>
<path opacity="0.5" d="M0.580652 44.9728C0.556721 44.9745 0.532702 44.9745 0.508771 44.9728C0.433159 44.9635 0.360126 44.9394 0.293849 44.9018C0.227571 44.8642 0.169347 44.814 0.122508 44.7539C0.0756688 44.6938 0.0411322 44.6251 0.0208729 44.5516C0.000613595 44.4782 -0.00497092 44.4015 0.00443869 44.3259C0.452146 40.7184 1.46469 37.2039 3.00492 33.9111C3.03637 33.841 3.08146 33.7778 3.13756 33.7252C3.19367 33.6727 3.25966 33.6318 3.33171 33.605C3.40375 33.5782 3.48041 33.566 3.55723 33.5691C3.63404 33.5722 3.70947 33.5905 3.77912 33.623C3.84878 33.6556 3.91127 33.7016 3.96296 33.7585C4.01465 33.8154 4.05451 33.882 4.08021 33.9545C4.10592 34.0269 4.11695 34.1038 4.11268 34.1805C4.10841 34.2573 4.08891 34.3324 4.05533 34.4016C2.56747 37.5833 1.58937 40.9793 1.15687 44.465C1.13932 44.6054 1.07106 44.7345 0.964924 44.828C0.858791 44.9216 0.722119 44.9731 0.580652 44.9728Z" fill="#323C6B"/>
<path opacity="0.5" d="M5.11867 31.692C5.01628 31.6919 4.91574 31.6647 4.82728 31.6131C4.73882 31.5615 4.6656 31.4875 4.61507 31.3984C4.56454 31.3093 4.53849 31.2085 4.53958 31.1061C4.54068 31.0037 4.56887 30.9035 4.6213 30.8155C4.74419 30.6091 4.87288 30.4062 5.00273 30.2045C5.08622 30.0754 5.21758 29.9847 5.36793 29.9524C5.51828 29.9201 5.6753 29.9489 5.80445 30.0323C5.93359 30.1158 6.02428 30.2472 6.05657 30.3975C6.08886 30.5479 6.0601 30.7049 5.97661 30.834C5.85488 31.023 5.73314 31.2143 5.61721 31.4137C5.56518 31.4992 5.49193 31.5697 5.40457 31.6185C5.31721 31.6673 5.21872 31.6926 5.11867 31.692Z" fill="#323C6B"/>
<path d="M34.6207 30.5198C34.467 30.5198 34.3195 30.4587 34.2108 30.35C34.1021 30.2413 34.041 30.0938 34.041 29.9401V28.1639C34.041 28.0102 34.1021 27.8627 34.2108 27.754C34.3195 27.6453 34.467 27.5842 34.6207 27.5842C34.7745 27.5842 34.9219 27.6453 35.0306 27.754C35.1393 27.8627 35.2004 28.0102 35.2004 28.1639V29.9401C35.2004 30.0938 35.1393 30.2413 35.0306 30.35C34.9219 30.4587 34.7745 30.5198 34.6207 30.5198Z" fill="#FF5500"/>
<path d="M34.6207 69.6002C34.467 69.6002 34.3195 69.5392 34.2108 69.4304C34.1021 69.3217 34.041 69.1743 34.041 69.0205V67.2467C34.041 67.0929 34.1021 66.9455 34.2108 66.8368C34.3195 66.7281 34.467 66.667 34.6207 66.667C34.7745 66.667 34.9219 66.7281 35.0306 66.8368C35.1393 66.9455 35.2004 67.0929 35.2004 67.2467V69.0205C35.2004 69.1743 35.1393 69.3217 35.0306 69.4304C34.9219 69.5392 34.7745 69.6002 34.6207 69.6002Z" fill="#FF5500"/>
<path d="M55.0492 49.1718H53.2731C53.1193 49.1718 52.9719 49.1108 52.8631 49.0021C52.7544 48.8933 52.6934 48.7459 52.6934 48.5921C52.6934 48.4384 52.7544 48.291 52.8631 48.1822C52.9719 48.0735 53.1193 48.0125 53.2731 48.0125H55.0492C55.203 48.0125 55.3504 48.0735 55.4591 48.1822C55.5679 48.291 55.6289 48.4384 55.6289 48.5921C55.6289 48.7459 55.5679 48.8933 55.4591 49.0021C55.3504 49.1108 55.203 49.1718 55.0492 49.1718Z" fill="#FF5500"/>
<path d="M15.9692 49.1718H14.193C14.0392 49.1718 13.8918 49.1108 13.7831 49.0021C13.6744 48.8933 13.6133 48.7459 13.6133 48.5921C13.6133 48.4384 13.6744 48.291 13.7831 48.1822C13.8918 48.0735 14.0392 48.0125 14.193 48.0125H15.9692C16.1229 48.0125 16.2703 48.0735 16.3791 48.1822C16.4878 48.291 16.5488 48.4384 16.5488 48.5921C16.5488 48.7459 16.4878 48.8933 16.3791 49.0021C16.2703 49.1108 16.1229 49.1718 15.9692 49.1718Z" fill="#FF5500"/>
<path d="M34.6216 80C28.4097 80 22.3374 78.1579 17.1724 74.7068C12.0074 71.2557 7.98182 66.3505 5.60465 60.6115C3.22748 54.8725 2.6055 48.5574 3.81737 42.4649C5.02924 36.3724 8.02054 30.7761 12.413 26.3837C16.8054 21.9912 22.4017 18.9999 28.4942 17.7881C34.5867 16.5762 40.9018 17.1982 46.6408 19.5754C52.3798 21.9525 57.285 25.9781 60.7361 31.1431C64.1873 36.3081 66.0293 42.3804 66.0293 48.5923C66.0201 56.9193 62.7081 64.9026 56.82 70.7907C50.9319 76.6788 42.9486 79.9908 34.6216 80ZM34.6216 18.344C28.639 18.344 22.7908 20.118 17.8165 23.4417C12.8422 26.7655 8.9652 31.4896 6.67578 37.0168C4.38636 42.5439 3.78734 48.6258 4.95448 54.4934C6.12162 60.361 9.00249 65.7508 13.2328 69.9811C17.4631 74.2114 22.8528 77.0922 28.7204 78.2594C34.588 79.4265 40.67 78.8275 46.1971 76.5381C51.7243 74.2487 56.4484 70.3717 59.7721 65.3973C63.0959 60.423 64.8699 54.5748 64.8699 48.5923C64.861 40.5727 61.6713 32.8841 56.0005 27.2133C50.3298 21.5426 42.6412 18.3529 34.6216 18.344Z" fill="#FF5500"/>
</svg>
