<svg width="22" height="22" viewBox="0 0 22 22" fill="none" xmlns="http://www.w3.org/2000/svg">
<g clip-path="url(#clip0)">
<path d="M19.1209 22.0009L13.4527 16.3328C12.0744 17.1862 10.4837 17.6445 8.82182 17.6446C8.82161 17.6446 8.82182 17.6446 8.82161 17.6446C6.46539 17.6446 4.24995 16.7269 2.58387 15.0608C0.917585 13.3947 0 11.1791 0 8.82259C0.000102997 6.46616 0.917686 4.25082 2.58377 2.58474C4.24995 0.918561 6.46539 0.000976562 8.82182 0.000976562C11.1782 0.000976562 13.3936 0.918561 15.0597 2.58474C16.7261 4.25093 17.6436 6.46636 17.6436 8.8229C17.6435 10.4848 17.1853 12.0754 16.3319 13.4537L22 19.1217L19.1209 22.0009ZM12.1807 5.46377C11.2835 4.56667 10.0906 4.07258 8.82182 4.07258C7.55288 4.07258 6.36 4.56667 5.4629 5.46377C4.56569 6.36088 4.0716 7.55376 4.0716 8.82269C4.0715 10.0916 4.56559 11.2845 5.4629 12.1817C6.36 13.0789 7.55288 13.573 8.82172 13.573C10.0906 13.5729 11.2835 13.0789 12.1807 12.1817C13.0778 11.2846 13.572 10.0918 13.572 8.8229C13.572 7.55396 13.0779 6.36098 12.1807 5.46377Z" fill="#2C415B"/>
</g>
<defs>
<clipPath id="clip0">
<rect width="22" height="22" fill="white" transform="matrix(-1 0 0 1 22 0)"/>
</clipPath>
</defs>
</svg>
